<svg xmlns="http://www.w3.org/2000/svg" width="252" height="72">
  <g fill="none" fill-rule="evenodd">
    <path fill="#111" d="M180 0h72v72h-72zm-63 24h12v12h-12V24zm0 12h12v12h-12V36zm-15-24h12v12h-12V12zm3 36h12v12h-12V48zM90 36h12v12H90V36zm0-12h12v12H90V24zm12-12v12H90l12-12zm27 12h-12V12l12 12zm-12 36V48h12l-12 12zM90 48h12v12L90 48zM72 24h12v12H72V24zm0 12h12v12H72V36zM57 12h12v12H57V12zm3 36h12v12H60V48zM45 36h12v12H45V36zm0-12h12v12H45V24zm12-12v12H45l12-12zm27 12H72V12l12 12zM72 60V48h12L72 60zM45 48h12v12L45 48zM12 12h12v12H12V12zm0 36h12v12H12V48zM0 36h12v12H0V36zm0-12h12v12H0V24zm12-12v12H0l12-12zm27 12H27V12l12 12zM27 60V48h12L27 60zM0 48h12v12L0 48zm150 0h12v12h-12V48zm-15-12h12v12h-12V36zm0-12h12v12h-12V24zm12-12v12h-12l12-12zm15 48V48h12l-12 12zm-27-12h12v12l-12-12z"/>
    <path fill="#FFF" d="M189 36h12v12h-12V36zm0-12h12v12h-12V24zm12-12v12h-12l12-12zm-12 36h12v12l-12-12zm43-24h12v12h-12V24zm0 12h12v12h-12V36zm-15-24h12v12h-12V12zm3 36h12v12h-12V48zm-15-12h12v12h-12V36zm0-12h12v12h-12V24zm12-12v12h-12l12-12zm27 12h-12V12l12 12zm-12 36V48h12l-12 12zm-27-12h12v12l-12-12z"/>
  </g>
</svg>
